<svg width="1400" height="420" viewBox="0 0 1400 420" fill="none" xmlns="http://www.w3.org/2000/svg" role="img" aria-label="AWS Cloud Migration Starter Kit for SMEs banner">
  <rect width="1400" height="420" rx="24" fill="#0F172A"/>
  <path d="M0 315 L260 160 L520 315 L780 145 L1040 315 L1400 95 V420 H0 Z" fill="#1E293B"/>
  <circle cx="1168" cy="104" r="86" fill="#FF9900" fill-opacity="0.16"/>
  <circle cx="1264" cy="190" r="54" fill="#38BDF8" fill-opacity="0.15"/>
  <rect x="72" y="70" width="92" height="92" rx="22" fill="#FF9900"/>
  <text x="118" y="126" text-anchor="middle" font-family="Arial, Helvetica, sans-serif" font-size="34" font-weight="800" fill="#111827">AWS</text>
  <text x="190" y="100" font-family="Arial, Helvetica, sans-serif" font-size="44" font-weight="800" fill="#F8FAFC">AWS Cloud Migration Starter Kit</text>
  <text x="192" y="150" font-family="Arial, Helvetica, sans-serif" font-size="24" font-weight="600" fill="#BAE6FD">Cloud fundamentals • SME migration • AWS Console setup • IaC examples</text>
  <text x="192" y="205" font-family="Arial, Helvetica, sans-serif" font-size="20" fill="#CBD5E1">A portfolio-ready project for IT Support, Systems Administration and Junior Cloud roles.</text>

  <g transform="translate(82,250)">
    <rect width="185" height="48" rx="14" fill="#334155"/>
    <text x="92" y="31" text-anchor="middle" font-family="Arial, Helvetica, sans-serif" font-size="16" font-weight="700" fill="#F8FAFC">VPC + Subnets</text>
  </g>
  <g transform="translate(288,250)">
    <rect width="155" height="48" rx="14" fill="#334155"/>
    <text x="78" y="31" text-anchor="middle" font-family="Arial, Helvetica, sans-serif" font-size="16" font-weight="700" fill="#F8FAFC">ALB + ASG</text>
  </g>
  <g transform="translate(464,250)">
    <rect width="132" height="48" rx="14" fill="#334155"/>
    <text x="66" y="31" text-anchor="middle" font-family="Arial, Helvetica, sans-serif" font-size="16" font-weight="700" fill="#F8FAFC">RDS + S3</text>
  </g>
  <g transform="translate(617,250)">
    <rect width="176" height="48" rx="14" fill="#334155"/>
    <text x="88" y="31" text-anchor="middle" font-family="Arial, Helvetica, sans-serif" font-size="16" font-weight="700" fill="#F8FAFC">IAM Security</text>
  </g>
  <g transform="translate(814,250)">
    <rect width="165" height="48" rx="14" fill="#334155"/>
    <text x="82" y="31" text-anchor="middle" font-family="Arial, Helvetica, sans-serif" font-size="16" font-weight="700" fill="#F8FAFC">CloudWatch</text>
  </g>
  <g transform="translate(1000,250)">
    <rect width="250" height="48" rx="14" fill="#334155"/>
    <text x="125" y="31" text-anchor="middle" font-family="Arial, Helvetica, sans-serif" font-size="16" font-weight="700" fill="#F8FAFC">Terraform + CloudFormation</text>
  </g>

  <text x="72" y="372" font-family="Arial, Helvetica, sans-serif" font-size="20" font-weight="700" fill="#E2E8F0">Author: Xuan Toan Nguyen • Adelaide, South Australia • #ToanNguyenITOz</text>
</svg>
