<svg xmlns="http://www.w3.org/2000/svg" width="1200" height="540" viewBox="0 0 1200 540">
  <rect width="1200" height="540" fill="#f8fafc"/>
  <text x="40" y="60" font-family="Arial" font-size="30" font-weight="700" fill="#0f172a">AWS Console Manual Setup - Network Foundation</text>
  <text x="40" y="95" font-family="Arial" font-size="18" fill="#334155">Create the VPC, six subnets, Internet Gateway, NAT Gateway, and route tables.</text>
  <rect x="50" y="125" width="1100" height="355" rx="20" fill="#ffffff" stroke="#cbd5e1" stroke-width="2"/>
  <rect x="90" y="165" width="1020" height="270" rx="18" fill="#eff6ff" stroke="#60a5fa" stroke-width="2"/>
  <text x="115" y="195" font-family="Arial" font-size="24" font-weight="700" fill="#1d4ed8">VPC: scos-dev-web-vpc (10.20.0.0/16)</text>
  <rect x="130" y="225" width="190" height="80" rx="12" fill="#dbeafe" stroke="#3b82f6"/>
  <text x="155" y="258" font-family="Arial" font-size="22" font-weight="700" fill="#1e3a8a">Public A</text>
  <text x="155" y="286" font-family="Arial" font-size="18" fill="#0f172a">10.20.0.0/24</text>
  <rect x="130" y="325" width="190" height="80" rx="12" fill="#dcfce7" stroke="#22c55e"/>
  <text x="155" y="358" font-family="Arial" font-size="22" font-weight="700" fill="#166534">App A</text>
  <text x="155" y="386" font-family="Arial" font-size="18" fill="#0f172a">10.20.10.0/24</text>
  <rect x="360" y="325" width="190" height="80" rx="12" fill="#f3e8ff" stroke="#a855f7"/>
  <text x="385" y="358" font-family="Arial" font-size="22" font-weight="700" fill="#6b21a8">DB A</text>
  <text x="385" y="386" font-family="Arial" font-size="18" fill="#0f172a">10.20.20.0/24</text>
  <rect x="640" y="225" width="190" height="80" rx="12" fill="#dbeafe" stroke="#3b82f6"/>
  <text x="665" y="258" font-family="Arial" font-size="22" font-weight="700" fill="#1e3a8a">Public B</text>
  <text x="665" y="286" font-family="Arial" font-size="18" fill="#0f172a">10.20.1.0/24</text>
  <rect x="640" y="325" width="190" height="80" rx="12" fill="#dcfce7" stroke="#22c55e"/>
  <text x="665" y="358" font-family="Arial" font-size="22" font-weight="700" fill="#166534">App B</text>
  <text x="665" y="386" font-family="Arial" font-size="18" fill="#0f172a">10.20.11.0/24</text>
  <rect x="870" y="325" width="190" height="80" rx="12" fill="#f3e8ff" stroke="#a855f7"/>
  <text x="895" y="358" font-family="Arial" font-size="22" font-weight="700" fill="#6b21a8">DB B</text>
  <text x="895" y="386" font-family="Arial" font-size="18" fill="#0f172a">10.20.21.0/24</text>
  <circle cx="520" cy="250" r="42" fill="#fef3c7" stroke="#f59e0b" stroke-width="2"/>
  <text x="490" y="245" font-family="Arial" font-size="18" font-weight="700" fill="#92400e">IGW</text>
  <text x="474" y="270" font-family="Arial" font-size="15" fill="#0f172a">Internet</text>
  <circle cx="520" cy="365" r="42" fill="#fee2e2" stroke="#ef4444" stroke-width="2"/>
  <text x="490" y="360" font-family="Arial" font-size="18" font-weight="700" fill="#991b1b">NAT</text>
  <text x="475" y="385" font-family="Arial" font-size="15" fill="#0f172a">Outbound</text>
  <text x="125" y="455" font-family="Arial" font-size="18" fill="#334155">Public route table → Internet Gateway | App route table → NAT Gateway | DB route table → local only</text>
</svg>
